<?xml version="1.0" encoding="UTF-8" standalone="no"?>
<!DOCTYPE svg PUBLIC "-//W3C//DTD SVG 1.1//EN"
 "http://www.w3.org/Graphics/SVG/1.1/DTD/svg11.dtd">
<!-- Generated by graphviz version 2.43.0 (0)
 -->
<!-- Title: G Pages: 1 -->
<svg width="617pt" height="260pt"
 viewBox="0.00 0.00 617.00 260.00" xmlns="http://www.w3.org/2000/svg" xmlns:xlink="http://www.w3.org/1999/xlink">
<g id="graph0" class="graph" transform="scale(1 1) rotate(0) translate(4 256)">
<title>G</title><style>.edge>path:hover{stroke-width:8}</style>
<polygon fill="white" stroke="transparent" points="-4,4 -4,-256 613,-256 613,4 -4,4"/>
<!-- data_processing -->
<g id="node1" class="node">
<title>data_processing</title><style>.edge>path:hover{stroke-width:8}</style>
<ellipse fill="#a44646" stroke="black" cx="176.29" cy="-90" rx="56.52" ry="18"/>
<text text-anchor="middle" x="176.29" y="-87.5" font-family="Helvetica,sans-Serif" font-size="10.00" fill="#ffffff">data_processing</text>
</g>
<!-- sky_analysis -->
<g id="node8" class="node">
<title>sky_analysis</title><style>.edge>path:hover{stroke-width:8}</style>
<ellipse fill="#794096" stroke="black" cx="436.29" cy="-18" rx="46.51" ry="18"/>
<text text-anchor="middle" x="436.29" y="-15.5" font-family="Helvetica,sans-Serif" font-size="10.00" fill="#ffffff">sky_analysis</text>
</g>
<!-- data_processing&#45;&gt;sky_analysis -->
<g id="edge1" class="edge">
<title>data_processing&#45;&gt;sky_analysis</title><style>.edge>path:hover{stroke-width:8}</style>
<path fill="none" stroke="black" d="M218.06,-77.75C264.93,-65.13 340.77,-44.72 389.57,-31.58"/>
<polygon fill="#a44646" stroke="black" points="390.5,-34.95 399.25,-28.97 388.68,-28.19 390.5,-34.95"/>
</g>
<!-- ebv_data_processing -->
<g id="node2" class="node">
<title>ebv_data_processing</title><style>.edge>path:hover{stroke-width:8}</style>
<ellipse fill="#b3914c" stroke="black" cx="88.29" cy="-162" rx="70.1" ry="18"/>
<text text-anchor="middle" x="88.29" y="-159.5" font-family="Helvetica,sans-Serif" font-size="10.00" fill="#000000">ebv_data_processing</text>
</g>
<!-- ebv_data_processing&#45;&gt;data_processing -->
<g id="edge2" class="edge">
<title>ebv_data_processing&#45;&gt;data_processing</title><style>.edge>path:hover{stroke-width:8}</style>
<path fill="none" stroke="black" d="M108.7,-144.76C120.44,-135.42 135.37,-123.55 148.21,-113.33"/>
<polygon fill="#b3914c" stroke="black" points="150.64,-115.87 156.29,-106.91 146.29,-110.39 150.64,-115.87"/>
</g>
<!-- emission_data_processing -->
<g id="node3" class="node">
<title>emission_data_processing</title><style>.edge>path:hover{stroke-width:8}</style>
<ellipse fill="#91b34c" stroke="black" cx="262.29" cy="-162" rx="85.89" ry="18"/>
<text text-anchor="middle" x="262.29" y="-159.5" font-family="Helvetica,sans-Serif" font-size="10.00" fill="#000000">emission_data_processing</text>
</g>
<!-- emission_data_processing&#45;&gt;data_processing -->
<g id="edge3" class="edge">
<title>emission_data_processing&#45;&gt;data_processing</title><style>.edge>path:hover{stroke-width:8}</style>
<path fill="none" stroke="black" d="M241.91,-144.41C230.5,-135.12 216.12,-123.42 203.73,-113.34"/>
<polygon fill="#91b34c" stroke="black" points="205.89,-110.59 195.93,-106.99 201.47,-116.02 205.89,-110.59"/>
</g>
<!-- model -->
<g id="node4" class="node">
<title>model</title><style>.edge>path:hover{stroke-width:8}</style>
<ellipse fill="#33cc33" stroke="black" cx="432.29" cy="-162" rx="27.84" ry="18"/>
<text text-anchor="middle" x="432.29" y="-159.5" font-family="Helvetica,sans-Serif" font-size="10.00" fill="#000000">model</text>
</g>
<!-- optimizer -->
<g id="node5" class="node">
<title>optimizer</title><style>.edge>path:hover{stroke-width:8}</style>
<ellipse fill="#49ac8b" stroke="black" cx="371.29" cy="-90" rx="37.17" ry="18"/>
<text text-anchor="middle" x="371.29" y="-87.5" font-family="Helvetica,sans-Serif" font-size="10.00" fill="#000000">optimizer</text>
</g>
<!-- model&#45;&gt;optimizer -->
<g id="edge4" class="edge">
<title>model&#45;&gt;optimizer</title><style>.edge>path:hover{stroke-width:8}</style>
<path fill="none" stroke="black" d="M419.05,-145.81C411.2,-136.8 401.07,-125.18 392.16,-114.95"/>
<polygon fill="#33cc33" stroke="black" points="394.55,-112.37 385.35,-107.13 389.28,-116.97 394.55,-112.37"/>
</g>
<!-- sampler -->
<g id="node7" class="node">
<title>sampler</title><style>.edge>path:hover{stroke-width:8}</style>
<ellipse fill="#4646a4" stroke="black" cx="497.29" cy="-90" rx="32.93" ry="18"/>
<text text-anchor="middle" x="497.29" y="-87.5" font-family="Helvetica,sans-Serif" font-size="10.00" fill="#ffffff">sampler</text>
</g>
<!-- model&#45;&gt;sampler -->
<g id="edge5" class="edge">
<title>model&#45;&gt;sampler</title><style>.edge>path:hover{stroke-width:8}</style>
<path fill="none" stroke="black" d="M446.07,-146.15C454.83,-136.72 466.33,-124.33 476.22,-113.69"/>
<polygon fill="#33cc33" stroke="black" points="478.83,-116.02 483.07,-106.31 473.7,-111.25 478.83,-116.02"/>
</g>
<!-- model&#45;&gt;sky_analysis -->
<g id="edge6" class="edge">
<title>model&#45;&gt;sky_analysis</title><style>.edge>path:hover{stroke-width:8}</style>
<path fill="none" stroke="black" d="M432.77,-143.87C433.45,-119.67 434.7,-75.21 435.51,-46.39"/>
<polygon fill="#33cc33" stroke="black" points="439.02,-46.28 435.8,-36.19 432.02,-46.09 439.02,-46.28"/>
</g>
<!-- optimizer&#45;&gt;sky_analysis -->
<g id="edge7" class="edge">
<title>optimizer&#45;&gt;sky_analysis</title><style>.edge>path:hover{stroke-width:8}</style>
<path fill="none" stroke="black" d="M386.04,-73.12C394.39,-64.12 405.01,-52.68 414.33,-42.65"/>
<polygon fill="#49ac8b" stroke="black" points="416.9,-45.02 421.14,-35.31 411.77,-40.25 416.9,-45.02"/>
</g>
<!-- plot_utils -->
<g id="node6" class="node">
<title>plot_utils</title><style>.edge>path:hover{stroke-width:8}</style>
<ellipse fill="#5395b6" stroke="black" cx="552.29" cy="-162" rx="36.49" ry="18"/>
<text text-anchor="middle" x="552.29" y="-159.5" font-family="Helvetica,sans-Serif" font-size="10.00" fill="#000000">plot_utils</text>
</g>
<!-- plot_utils&#45;&gt;sampler -->
<g id="edge8" class="edge">
<title>plot_utils&#45;&gt;sampler</title><style>.edge>path:hover{stroke-width:8}</style>
<path fill="none" stroke="black" d="M539.53,-144.76C532.59,-135.93 523.87,-124.83 516.15,-115.01"/>
<polygon fill="#5395b6" stroke="black" points="518.9,-112.85 509.97,-107.15 513.4,-117.17 518.9,-112.85"/>
</g>
<!-- sampler&#45;&gt;sky_analysis -->
<g id="edge9" class="edge">
<title>sampler&#45;&gt;sky_analysis</title><style>.edge>path:hover{stroke-width:8}</style>
<path fill="none" stroke="black" d="M483.75,-73.46C475.99,-64.57 466.09,-53.21 457.34,-43.16"/>
<polygon fill="#4646a4" stroke="black" points="459.84,-40.71 450.64,-35.47 454.57,-45.31 459.84,-40.71"/>
</g>
<!-- utils -->
<g id="node9" class="node">
<title>utils</title><style>.edge>path:hover{stroke-width:8}</style>
<ellipse fill="#f910ac" stroke="black" cx="376.29" cy="-234" rx="27" ry="18"/>
<text text-anchor="middle" x="376.29" y="-231.5" font-family="Helvetica,sans-Serif" font-size="10.00" fill="#ffffff">utils</text>
</g>
<!-- utils&#45;&gt;data_processing -->
<g id="edge10" class="edge">
<title>utils&#45;&gt;data_processing</title><style>.edge>path:hover{stroke-width:8}</style>
<path fill="none" stroke="black" d="M349.28,-233.43C272.15,-234.03 53.54,-231.1 9.29,-180 -26.62,-138.54 55.34,-113.3 116.7,-100.76"/>
<polygon fill="#f910ac" stroke="black" points="117.59,-104.15 126.73,-98.79 116.24,-97.29 117.59,-104.15"/>
</g>
<!-- utils&#45;&gt;ebv_data_processing -->
<g id="edge11" class="edge">
<title>utils&#45;&gt;ebv_data_processing</title><style>.edge>path:hover{stroke-width:8}</style>
<path fill="none" stroke="black" d="M351.23,-226.91C306.03,-215.92 209.7,-192.51 147.03,-177.28"/>
<polygon fill="#f910ac" stroke="black" points="147.82,-173.87 137.28,-174.91 146.17,-180.67 147.82,-173.87"/>
</g>
<!-- utils&#45;&gt;emission_data_processing -->
<g id="edge12" class="edge">
<title>utils&#45;&gt;emission_data_processing</title><style>.edge>path:hover{stroke-width:8}</style>
<path fill="none" stroke="black" d="M356.95,-221.13C340.64,-211.11 316.89,-196.53 297.26,-184.48"/>
<polygon fill="#f910ac" stroke="black" points="298.93,-181.39 288.57,-179.14 295.26,-187.36 298.93,-181.39"/>
</g>
<!-- utils&#45;&gt;model -->
<g id="edge13" class="edge">
<title>utils&#45;&gt;model</title><style>.edge>path:hover{stroke-width:8}</style>
<path fill="none" stroke="black" d="M388.44,-217.81C395.75,-208.67 405.21,-196.85 413.47,-186.52"/>
<polygon fill="#f910ac" stroke="black" points="416.26,-188.64 419.77,-178.64 410.79,-184.27 416.26,-188.64"/>
</g>
<!-- utils&#45;&gt;optimizer -->
<g id="edge14" class="edge">
<title>utils&#45;&gt;optimizer</title><style>.edge>path:hover{stroke-width:8}</style>
<path fill="none" stroke="black" d="M375.68,-215.87C374.83,-191.67 373.27,-147.21 372.25,-118.39"/>
<polygon fill="#f910ac" stroke="black" points="375.74,-118.06 371.89,-108.19 368.75,-118.31 375.74,-118.06"/>
</g>
<!-- utils&#45;&gt;sampler -->
<g id="edge15" class="edge">
<title>utils&#45;&gt;sampler</title><style>.edge>path:hover{stroke-width:8}</style>
<path fill="none" stroke="black" d="M400.26,-225.07C421.31,-216.93 451.32,-202.27 469.29,-180 483.55,-162.32 490.59,-137.3 494.04,-118.29"/>
<polygon fill="#f910ac" stroke="black" points="497.53,-118.58 495.64,-108.16 490.62,-117.49 497.53,-118.58"/>
</g>
<!-- utils&#45;&gt;sky_analysis -->
<g id="edge16" class="edge">
<title>utils&#45;&gt;sky_analysis</title><style>.edge>path:hover{stroke-width:8}</style>
<path fill="none" stroke="black" d="M403.07,-230.63C456.52,-225.3 573.34,-210.36 597.29,-180 642.71,-122.4 537.68,-63.71 476.45,-35.77"/>
<polygon fill="#f910ac" stroke="black" points="477.59,-32.45 467.03,-31.56 474.73,-38.84 477.59,-32.45"/>
</g>
</g>
</svg>
