<?xml version="1.0" encoding="UTF-8" standalone="no"?>
<!DOCTYPE svg PUBLIC "-//W3C//DTD SVG 1.1//EN"
 "http://www.w3.org/Graphics/SVG/1.1/DTD/svg11.dtd">
<!-- Generated by graphviz version 2.43.0 (0)
 -->
<!-- Title: G Pages: 1 -->
<svg width="332pt" height="260pt"
 viewBox="0.00 0.00 331.77 260.00" xmlns="http://www.w3.org/2000/svg" xmlns:xlink="http://www.w3.org/1999/xlink">
<g id="graph0" class="graph" transform="scale(1 1) rotate(0) translate(4 256)">
<title>G</title><style>.edge>path:hover{stroke-width:8}</style>
<polygon fill="white" stroke="transparent" points="-4,4 -4,-256 327.77,-256 327.77,4 -4,4"/>
<!-- data_processing -->
<g id="node1" class="node">
<title>data_processing</title><style>.edge>path:hover{stroke-width:8}</style>
<ellipse fill="#b34c4c" stroke="black" cx="56.51" cy="-162" rx="56.52" ry="18"/>
<text text-anchor="middle" x="56.51" y="-159.5" font-family="Helvetica,sans-Serif" font-size="10.00" fill="#ffffff">data_processing</text>
</g>
<!-- sky_analysis -->
<g id="node5" class="node">
<title>sky_analysis</title><style>.edge>path:hover{stroke-width:8}</style>
<ellipse fill="#404096" stroke="black" cx="194.51" cy="-18" rx="46.51" ry="18"/>
<text text-anchor="middle" x="194.51" y="-15.5" font-family="Helvetica,sans-Serif" font-size="10.00" fill="#ffffff">sky_analysis</text>
</g>
<!-- data_processing&#45;&gt;sky_analysis -->
<g id="edge1" class="edge">
<title>data_processing&#45;&gt;sky_analysis</title><style>.edge>path:hover{stroke-width:8}</style>
<path fill="none" stroke="black" d="M57.62,-143.97C59.73,-124.47 65.83,-92.57 83.51,-72 100,-52.81 125,-40.03 147.1,-31.84"/>
<polygon fill="#b34c4c" stroke="black" points="148.4,-35.1 156.69,-28.5 146.09,-28.49 148.4,-35.1"/>
</g>
<!-- model -->
<g id="node2" class="node">
<title>model</title><style>.edge>path:hover{stroke-width:8}</style>
<ellipse fill="#cccc33" stroke="black" cx="197.51" cy="-162" rx="27.84" ry="18"/>
<text text-anchor="middle" x="197.51" y="-159.5" font-family="Helvetica,sans-Serif" font-size="10.00" fill="#000000">model</text>
</g>
<!-- optimizer -->
<g id="node3" class="node">
<title>optimizer</title><style>.edge>path:hover{stroke-width:8}</style>
<ellipse fill="#49ac49" stroke="black" cx="129.51" cy="-90" rx="37.17" ry="18"/>
<text text-anchor="middle" x="129.51" y="-87.5" font-family="Helvetica,sans-Serif" font-size="10.00" fill="#000000">optimizer</text>
</g>
<!-- model&#45;&gt;optimizer -->
<g id="edge2" class="edge">
<title>model&#45;&gt;optimizer</title><style>.edge>path:hover{stroke-width:8}</style>
<path fill="none" stroke="black" d="M183.42,-146.5C174.41,-137.22 162.51,-124.97 152.18,-114.34"/>
<polygon fill="#cccc33" stroke="black" points="154.48,-111.68 145.01,-106.95 149.46,-116.56 154.48,-111.68"/>
</g>
<!-- sampler -->
<g id="node4" class="node">
<title>sampler</title><style>.edge>path:hover{stroke-width:8}</style>
<ellipse fill="#49acac" stroke="black" cx="255.51" cy="-90" rx="32.93" ry="18"/>
<text text-anchor="middle" x="255.51" y="-87.5" font-family="Helvetica,sans-Serif" font-size="10.00" fill="#000000">sampler</text>
</g>
<!-- model&#45;&gt;sampler -->
<g id="edge3" class="edge">
<title>model&#45;&gt;sampler</title><style>.edge>path:hover{stroke-width:8}</style>
<path fill="none" stroke="black" d="M210.1,-145.81C217.67,-136.67 227.47,-124.85 236.02,-114.52"/>
<polygon fill="#cccc33" stroke="black" points="238.86,-116.58 242.55,-106.64 233.47,-112.11 238.86,-116.58"/>
</g>
<!-- model&#45;&gt;sky_analysis -->
<g id="edge4" class="edge">
<title>model&#45;&gt;sky_analysis</title><style>.edge>path:hover{stroke-width:8}</style>
<path fill="none" stroke="black" d="M197.15,-143.87C196.64,-119.67 195.7,-75.21 195.09,-46.39"/>
<polygon fill="#cccc33" stroke="black" points="198.59,-46.11 194.87,-36.19 191.59,-46.26 198.59,-46.11"/>
</g>
<!-- optimizer&#45;&gt;sky_analysis -->
<g id="edge5" class="edge">
<title>optimizer&#45;&gt;sky_analysis</title><style>.edge>path:hover{stroke-width:8}</style>
<path fill="none" stroke="black" d="M144.26,-73.12C152.62,-64.12 163.24,-52.68 172.55,-42.65"/>
<polygon fill="#49ac49" stroke="black" points="175.13,-45.02 179.37,-35.31 170,-40.25 175.13,-45.02"/>
</g>
<!-- sampler&#45;&gt;sky_analysis -->
<g id="edge6" class="edge">
<title>sampler&#45;&gt;sky_analysis</title><style>.edge>path:hover{stroke-width:8}</style>
<path fill="none" stroke="black" d="M241.97,-73.46C234.22,-64.57 224.32,-53.21 215.57,-43.16"/>
<polygon fill="#49acac" stroke="black" points="218.07,-40.71 208.86,-35.47 212.79,-45.31 218.07,-40.71"/>
</g>
<!-- utils -->
<g id="node6" class="node">
<title>utils</title><style>.edge>path:hover{stroke-width:8}</style>
<ellipse fill="#e722e7" stroke="black" cx="169.51" cy="-234" rx="27" ry="18"/>
<text text-anchor="middle" x="169.51" y="-231.5" font-family="Helvetica,sans-Serif" font-size="10.00" fill="#ffffff">utils</text>
</g>
<!-- utils&#45;&gt;data_processing -->
<g id="edge7" class="edge">
<title>utils&#45;&gt;data_processing</title><style>.edge>path:hover{stroke-width:8}</style>
<path fill="none" stroke="black" d="M150.34,-221.13C133.85,-210.91 109.68,-195.94 90,-183.75"/>
<polygon fill="#e722e7" stroke="black" points="91.67,-180.66 81.32,-178.37 87.98,-186.61 91.67,-180.66"/>
</g>
<!-- utils&#45;&gt;model -->
<g id="edge8" class="edge">
<title>utils&#45;&gt;model</title><style>.edge>path:hover{stroke-width:8}</style>
<path fill="none" stroke="black" d="M176.15,-216.41C179.38,-208.34 183.34,-198.43 186.97,-189.35"/>
<polygon fill="#e722e7" stroke="black" points="190.26,-190.54 190.73,-179.96 183.77,-187.94 190.26,-190.54"/>
</g>
<!-- utils&#45;&gt;optimizer -->
<g id="edge9" class="edge">
<title>utils&#45;&gt;optimizer</title><style>.edge>path:hover{stroke-width:8}</style>
<path fill="none" stroke="black" d="M164.77,-216.15C157.95,-191.94 145.3,-147.05 137.15,-118.13"/>
<polygon fill="#e722e7" stroke="black" points="140.46,-116.94 134.38,-108.27 133.72,-118.84 140.46,-116.94"/>
</g>
<!-- utils&#45;&gt;sampler -->
<g id="edge10" class="edge">
<title>utils&#45;&gt;sampler</title><style>.edge>path:hover{stroke-width:8}</style>
<path fill="none" stroke="black" d="M196.29,-230.72C233.63,-225.82 298.76,-210.53 316.51,-163"/>
<path fill="none" stroke="black" d="M316.51,-161C324.33,-140.05 305.76,-121.24 287.1,-108.41"/>
<polygon fill="#e722e7" stroke="black" points="288.92,-105.42 278.62,-102.95 285.13,-111.31 288.92,-105.42"/>
</g>
<!-- utils&#45;&gt;sky_analysis -->
<g id="edge11" class="edge">
<title>utils&#45;&gt;sky_analysis</title><style>.edge>path:hover{stroke-width:8}</style>
<path fill="none" stroke="black" d="M316.51,-161C330.66,-123.11 322.08,-104.13 297.51,-72 283.38,-53.52 260.99,-40.92 240.69,-32.66"/>
<polygon fill="#e722e7" stroke="black" points="241.83,-29.35 231.24,-29.05 239.33,-35.89 241.83,-29.35"/>
</g>
</g>
</svg>
