<?xml version="1.0" encoding="UTF-8" standalone="no"?>
<!DOCTYPE svg PUBLIC "-//W3C//DTD SVG 1.1//EN"
 "http://www.w3.org/Graphics/SVG/1.1/DTD/svg11.dtd">
<!-- Generated by graphviz version 2.43.0 (0)
 -->
<!-- Title: G Pages: 1 -->
<svg width="549pt" height="410pt"
 viewBox="0.00 0.00 549.01 410.43" xmlns="http://www.w3.org/2000/svg" xmlns:xlink="http://www.w3.org/1999/xlink">
<g id="graph0" class="graph" transform="scale(1 1) rotate(0) translate(4 406.43)">
<title>G</title><style>.edge>path:hover{stroke-width:8}</style>
<polygon fill="white" stroke="transparent" points="-4,4 -4,-406.43 545.01,-406.43 545.01,4 -4,4"/>
<!-- data_processing -->
<g id="node1" class="node">
<title>data_processing</title><style>.edge>path:hover{stroke-width:8}</style>
<ellipse fill="#9d4343" stroke="black" cx="88.27" cy="-162" rx="56.52" ry="18"/>
<text text-anchor="middle" x="88.27" y="-159.5" font-family="Helvetica,sans-Serif" font-size="10.00" fill="#ffffff">data_processing</text>
</g>
<!-- sky_analysis -->
<g id="node10" class="node">
<title>sky_analysis</title><style>.edge>path:hover{stroke-width:8}</style>
<ellipse fill="#653172" stroke="black" cx="307.27" cy="-18" rx="46.51" ry="18"/>
<text text-anchor="middle" x="307.27" y="-15.5" font-family="Helvetica,sans-Serif" font-size="10.00" fill="#ffffff">sky_analysis</text>
</g>
<!-- data_processing&#45;&gt;sky_analysis -->
<g id="edge1" class="edge">
<title>data_processing&#45;&gt;sky_analysis</title><style>.edge>path:hover{stroke-width:8}</style>
<path fill="none" stroke="black" d="M108.04,-145.1C125.38,-131.05 151.21,-109.92 173.27,-91"/>
</g>
<!-- h5py -->
<g id="node2" class="node">
<title>h5py</title><style>.edge>path:hover{stroke-width:8}</style>
<ellipse fill="#d99126" stroke="black" cx="30.27" cy="-237.21" rx="27" ry="18"/>
<text text-anchor="middle" x="30.27" y="-234.71" font-family="Helvetica,sans-Serif" font-size="10.00" fill="#000000">h5py</text>
</g>
<!-- h5py&#45;&gt;data_processing -->
<g id="edge2" class="edge">
<title>h5py&#45;&gt;data_processing</title><style>.edge>path:hover{stroke-width:8}</style>
<path fill="none" stroke="black" d="M42.29,-221.04C49.9,-211.43 59.93,-198.77 68.67,-187.73"/>
<polygon fill="#d99126" stroke="black" points="71.59,-189.69 75.05,-179.68 66.1,-185.35 71.59,-189.69"/>
</g>
<!-- sampler -->
<g id="node9" class="node">
<title>sampler</title><style>.edge>path:hover{stroke-width:8}</style>
<ellipse fill="#4d3d8f" stroke="black" cx="246.27" cy="-90" rx="32.93" ry="18"/>
<text text-anchor="middle" x="246.27" y="-87.5" font-family="Helvetica,sans-Serif" font-size="10.00" fill="#ffffff">sampler</text>
</g>
<!-- h5py&#45;&gt;sampler -->
<g id="edge3" class="edge">
<title>h5py&#45;&gt;sampler</title><style>.edge>path:hover{stroke-width:8}</style>
<path fill="none" stroke="black" d="M3.27,-161C32.24,-100.3 71.92,-137.17 187.27,-108 194.07,-106.28 201.28,-104.32 208.23,-102.36"/>
<polygon fill="#d99126" stroke="black" points="209.51,-105.63 218.16,-99.51 207.58,-98.9 209.51,-105.63"/>
</g>
<!-- h5py&#45;&gt;sky_analysis -->
<g id="edge4" class="edge">
<title>h5py&#45;&gt;sky_analysis</title><style>.edge>path:hover{stroke-width:8}</style>
<path fill="none" stroke="black" d="M17.58,-221.02C6.65,-205.97 -6.01,-182.44 3.27,-163"/>
<path fill="none" stroke="black" d="M3.27,-161C8.15,-150.77 12.51,-149.76 22.27,-144 83.5,-107.82 119.29,-137.31 173.27,-91"/>
<path fill="none" stroke="black" d="M173.27,-89C200.62,-65.53 237.18,-47.1 265.2,-35.06"/>
<polygon fill="#d99126" stroke="black" points="266.86,-38.16 274.73,-31.06 264.16,-31.7 266.86,-38.16"/>
</g>
<!-- healpy -->
<g id="node3" class="node">
<title>healpy</title><style>.edge>path:hover{stroke-width:8}</style>
<ellipse fill="#b1ce3b" stroke="black" cx="206.27" cy="-312.43" rx="29.37" ry="18"/>
<text text-anchor="middle" x="206.27" y="-309.93" font-family="Helvetica,sans-Serif" font-size="10.00" fill="#000000">healpy</text>
</g>
<!-- healpy&#45;&gt;data_processing -->
<g id="edge5" class="edge">
<title>healpy&#45;&gt;data_processing</title><style>.edge>path:hover{stroke-width:8}</style>
<path fill="none" stroke="black" d="M199.18,-294.67C192.74,-279.72 182.81,-257.29 173.27,-238.21"/>
<path fill="none" stroke="black" d="M173.27,-236.21C162.41,-214.51 141.98,-196.59 123.87,-183.91"/>
<polygon fill="#b1ce3b" stroke="black" points="125.48,-180.77 115.22,-178.11 121.58,-186.59 125.48,-180.77"/>
</g>
<!-- healpy&#45;&gt;sky_analysis -->
<g id="edge6" class="edge">
<title>healpy&#45;&gt;sky_analysis</title><style>.edge>path:hover{stroke-width:8}</style>
<path fill="none" stroke="black" d="M173.27,-236.21C158.83,-207.35 148.78,-112.01 173.27,-91"/>
</g>
<!-- utils -->
<g id="node11" class="node">
<title>utils</title><style>.edge>path:hover{stroke-width:8}</style>
<ellipse fill="#dd188e" stroke="black" cx="272.27" cy="-237.21" rx="27" ry="18"/>
<text text-anchor="middle" x="272.27" y="-234.71" font-family="Helvetica,sans-Serif" font-size="10.00" fill="#ffffff">utils</text>
</g>
<!-- healpy&#45;&gt;utils -->
<g id="edge7" class="edge">
<title>healpy&#45;&gt;utils</title><style>.edge>path:hover{stroke-width:8}</style>
<path fill="none" stroke="black" d="M219.94,-296.26C229.21,-285.98 241.61,-272.22 252.02,-260.68"/>
<polygon fill="#b1ce3b" stroke="black" points="254.74,-262.88 258.84,-253.11 249.54,-258.2 254.74,-262.88"/>
</g>
<!-- matplotlib -->
<g id="node4" class="node">
<title>matplotlib</title><style>.edge>path:hover{stroke-width:8}</style>
<ellipse fill="#3dd317" stroke="black" cx="466.27" cy="-162" rx="39.38" ry="18"/>
<text text-anchor="middle" x="466.27" y="-159.5" font-family="Helvetica,sans-Serif" font-size="10.00" fill="#000000">matplotlib</text>
</g>
<!-- optimizer -->
<g id="node8" class="node">
<title>optimizer</title><style>.edge>path:hover{stroke-width:8}</style>
<ellipse fill="#43679d" stroke="black" cx="385.27" cy="-90" rx="37.17" ry="18"/>
<text text-anchor="middle" x="385.27" y="-87.5" font-family="Helvetica,sans-Serif" font-size="10.00" fill="#ffffff">optimizer</text>
</g>
<!-- matplotlib&#45;&gt;optimizer -->
<g id="edge8" class="edge">
<title>matplotlib&#45;&gt;optimizer</title><style>.edge>path:hover{stroke-width:8}</style>
<path fill="none" stroke="black" d="M448.69,-145.81C437.55,-136.18 422.95,-123.56 410.57,-112.86"/>
<polygon fill="#3dd317" stroke="black" points="412.66,-110.05 402.81,-106.16 408.09,-115.35 412.66,-110.05"/>
</g>
<!-- matplotlib&#45;&gt;sampler -->
<g id="edge9" class="edge">
<title>matplotlib&#45;&gt;sampler</title><style>.edge>path:hover{stroke-width:8}</style>
<path fill="none" stroke="black" d="M434.75,-150.97C394.93,-138.3 326.48,-116.52 283.95,-102.99"/>
<polygon fill="#3dd317" stroke="black" points="284.84,-99.6 274.25,-99.9 282.71,-106.27 284.84,-99.6"/>
</g>
<!-- matplotlib&#45;&gt;sky_analysis -->
<g id="edge10" class="edge">
<title>matplotlib&#45;&gt;sky_analysis</title><style>.edge>path:hover{stroke-width:8}</style>
<path fill="none" stroke="black" d="M493.34,-148.54C516.28,-136.03 543.88,-115.19 533.27,-91"/>
<path fill="none" stroke="black" d="M533.27,-89C519.14,-56.8 422.82,-36.36 360.56,-26.35"/>
<polygon fill="#3dd317" stroke="black" points="360.92,-22.87 350.5,-24.78 359.84,-29.78 360.92,-22.87"/>
</g>
<!-- matplotlib_pyplot -->
<g id="node5" class="node">
<title>matplotlib_pyplot</title><style>.edge>path:hover{stroke-width:8}</style>
<ellipse fill="#4ec431" stroke="black" cx="456.27" cy="-237.21" rx="49.49" ry="21.43"/>
<text text-anchor="middle" x="456.27" y="-240.21" font-family="Helvetica,sans-Serif" font-size="10.00" fill="#000000">matplotlib.</text>
<text text-anchor="middle" x="456.27" y="-229.21" font-family="Helvetica,sans-Serif" font-size="10.00" fill="#000000">pyplot</text>
</g>
<!-- matplotlib_pyplot&#45;&gt;matplotlib -->
<g id="edge11" class="edge">
<title>matplotlib_pyplot&#45;&gt;matplotlib</title><style>.edge>path:hover{stroke-width:8}</style>
<path fill="none" stroke="black" d="M459.05,-215.82C460.13,-207.97 461.37,-198.86 462.52,-190.45"/>
<polygon fill="#4ec431" stroke="black" points="466.02,-190.69 463.9,-180.31 459.08,-189.74 466.02,-190.69"/>
</g>
<!-- matplotlib_pyplot&#45;&gt;sampler -->
<g id="edge12" class="edge">
<title>matplotlib_pyplot&#45;&gt;sampler</title><style>.edge>path:hover{stroke-width:8}</style>
<path fill="none" stroke="black" d="M433.12,-218.14C419.18,-207.2 401.12,-192.9 385.27,-180 365.94,-164.26 362.83,-158.09 342.27,-144 322.25,-130.28 298.37,-117.09 279.43,-107.29"/>
<polygon fill="#4ec431" stroke="black" points="280.8,-104.06 270.3,-102.63 277.61,-110.3 280.8,-104.06"/>
</g>
<!-- matplotlib_pyplot&#45;&gt;sky_analysis -->
<g id="edge13" class="edge">
<title>matplotlib_pyplot&#45;&gt;sky_analysis</title><style>.edge>path:hover{stroke-width:8}</style>
<path fill="none" stroke="black" d="M486.05,-219.93C505.07,-207.37 527.26,-187.93 533.27,-163"/>
<path fill="none" stroke="black" d="M533.27,-161C540.56,-130.76 545.77,-119.49 533.27,-91"/>
</g>
<!-- model -->
<g id="node6" class="node">
<title>model</title><style>.edge>path:hover{stroke-width:8}</style>
<ellipse fill="#31c46c" stroke="black" cx="305.27" cy="-162" rx="27.84" ry="18"/>
<text text-anchor="middle" x="305.27" y="-159.5" font-family="Helvetica,sans-Serif" font-size="10.00" fill="#000000">model</text>
</g>
<!-- model&#45;&gt;optimizer -->
<g id="edge14" class="edge">
<title>model&#45;&gt;optimizer</title><style>.edge>path:hover{stroke-width:8}</style>
<path fill="none" stroke="black" d="M321.07,-147.17C332.31,-137.34 347.63,-123.93 360.48,-112.69"/>
<polygon fill="#31c46c" stroke="black" points="362.89,-115.23 368.11,-106.01 358.28,-109.96 362.89,-115.23"/>
</g>
<!-- model&#45;&gt;sampler -->
<g id="edge15" class="edge">
<title>model&#45;&gt;sampler</title><style>.edge>path:hover{stroke-width:8}</style>
<path fill="none" stroke="black" d="M292.47,-145.81C284.76,-136.67 274.8,-124.85 266.1,-114.52"/>
<polygon fill="#31c46c" stroke="black" points="268.57,-112.03 259.45,-106.64 263.22,-116.55 268.57,-112.03"/>
</g>
<!-- model&#45;&gt;sky_analysis -->
<g id="edge16" class="edge">
<title>model&#45;&gt;sky_analysis</title><style>.edge>path:hover{stroke-width:8}</style>
<path fill="none" stroke="black" d="M305.51,-143.87C305.85,-119.67 306.48,-75.21 306.88,-46.39"/>
<polygon fill="#31c46c" stroke="black" points="310.38,-46.24 307.03,-36.19 303.39,-46.14 310.38,-46.24"/>
</g>
<!-- numpy -->
<g id="node7" class="node">
<title>numpy</title><style>.edge>path:hover{stroke-width:8}</style>
<ellipse fill="#06f9f9" stroke="black" cx="245.27" cy="-384.43" rx="29.37" ry="18"/>
<text text-anchor="middle" x="245.27" y="-381.93" font-family="Helvetica,sans-Serif" font-size="10.00" fill="#000000">numpy</text>
</g>
<!-- numpy&#45;&gt;data_processing -->
<g id="edge17" class="edge">
<title>numpy&#45;&gt;data_processing</title><style>.edge>path:hover{stroke-width:8}</style>
<path fill="none" stroke="black" d="M223.01,-372.27C206.22,-362.95 183.55,-348.32 168.27,-330.43 131.71,-287.62 107.78,-225.24 96.28,-189.95"/>
<polygon fill="#06f9f9" stroke="black" points="99.59,-188.82 93.24,-180.34 92.92,-190.93 99.59,-188.82"/>
</g>
<!-- numpy&#45;&gt;matplotlib -->
<g id="edge18" class="edge">
<title>numpy&#45;&gt;matplotlib</title><style>.edge>path:hover{stroke-width:8}</style>
<path fill="none" stroke="black" d="M417.27,-311.43C448.65,-259.16 515.94,-296.66 533.27,-238.21"/>
<path fill="none" stroke="black" d="M533.27,-236.21C539.97,-213.62 520.39,-194.27 500.69,-181.15"/>
<polygon fill="#06f9f9" stroke="black" points="502.36,-178.07 492.03,-175.74 498.66,-184.01 502.36,-178.07"/>
</g>
<!-- numpy&#45;&gt;matplotlib_pyplot -->
<g id="edge19" class="edge">
<title>numpy&#45;&gt;matplotlib_pyplot</title><style>.edge>path:hover{stroke-width:8}</style>
<path fill="none" stroke="black" d="M417.27,-311.43C425.88,-297.08 434.71,-280.68 441.78,-267.04"/>
<polygon fill="#06f9f9" stroke="black" points="444.92,-268.59 446.38,-258.09 438.69,-265.39 444.92,-268.59"/>
</g>
<!-- numpy&#45;&gt;model -->
<g id="edge20" class="edge">
<title>numpy&#45;&gt;model</title><style>.edge>path:hover{stroke-width:8}</style>
<path fill="none" stroke="black" d="M379.27,-236.21C365.94,-215.69 346.01,-196.4 330.19,-182.77"/>
<polygon fill="#06f9f9" stroke="black" points="332.26,-179.94 322.35,-176.19 327.76,-185.3 332.26,-179.94"/>
</g>
<!-- numpy&#45;&gt;optimizer -->
<g id="edge21" class="edge">
<title>numpy&#45;&gt;optimizer</title><style>.edge>path:hover{stroke-width:8}</style>
<path fill="none" stroke="black" d="M379.27,-236.21C361.32,-207.65 389.59,-195.31 399.27,-163"/>
</g>
<!-- numpy&#45;&gt;sampler -->
<g id="edge22" class="edge">
<title>numpy&#45;&gt;sampler</title><style>.edge>path:hover{stroke-width:8}</style>
<path fill="none" stroke="black" d="M417.27,-311.43C436.14,-280 399.24,-268.96 379.27,-238.21"/>
<path fill="none" stroke="black" d="M379.27,-236.21C349.15,-189.84 302.7,-223.27 268.27,-180 254.37,-162.53 249.09,-137.49 247.17,-118.42"/>
<polygon fill="#06f9f9" stroke="black" points="250.64,-117.96 246.39,-108.25 243.66,-118.49 250.64,-117.96"/>
</g>
<!-- numpy&#45;&gt;sky_analysis -->
<g id="edge23" class="edge">
<title>numpy&#45;&gt;sky_analysis</title><style>.edge>path:hover{stroke-width:8}</style>
<path fill="none" stroke="black" d="M533.27,-236.21C542.52,-205.02 525.64,-194.63 533.27,-163"/>
</g>
<!-- numpy&#45;&gt;utils -->
<g id="edge24" class="edge">
<title>numpy&#45;&gt;utils</title><style>.edge>path:hover{stroke-width:8}</style>
<path fill="none" stroke="black" d="M274.53,-381.67C315.3,-377.41 387.56,-362.9 417.27,-313.43"/>
<path fill="none" stroke="black" d="M417.27,-311.43C430.32,-289.69 353.51,-262.37 306.62,-248.03"/>
<polygon fill="#06f9f9" stroke="black" points="307.42,-244.62 296.84,-245.09 305.41,-251.32 307.42,-244.62"/>
</g>
<!-- optimizer&#45;&gt;sky_analysis -->
<g id="edge25" class="edge">
<title>optimizer&#45;&gt;sky_analysis</title><style>.edge>path:hover{stroke-width:8}</style>
<path fill="none" stroke="black" d="M368.34,-73.81C357.93,-64.47 344.39,-52.31 332.7,-41.83"/>
<polygon fill="#43679d" stroke="black" points="334.75,-38.96 324.97,-34.89 330.08,-44.17 334.75,-38.96"/>
</g>
<!-- sampler&#45;&gt;sky_analysis -->
<g id="edge26" class="edge">
<title>sampler&#45;&gt;sky_analysis</title><style>.edge>path:hover{stroke-width:8}</style>
<path fill="none" stroke="black" d="M259.81,-73.46C267.56,-64.57 277.46,-53.21 286.21,-43.16"/>
<polygon fill="#4d3d8f" stroke="black" points="288.99,-45.31 292.92,-35.47 283.71,-40.71 288.99,-45.31"/>
</g>
<!-- utils&#45;&gt;data_processing -->
<g id="edge27" class="edge">
<title>utils&#45;&gt;data_processing</title><style>.edge>path:hover{stroke-width:8}</style>
<path fill="none" stroke="black" d="M249.71,-227.24C220.46,-215.6 168.83,-195.06 131.83,-180.33"/>
<polygon fill="#dd188e" stroke="black" points="132.87,-176.98 122.28,-176.54 130.28,-183.48 132.87,-176.98"/>
</g>
<!-- utils&#45;&gt;model -->
<g id="edge28" class="edge">
<title>utils&#45;&gt;model</title><style>.edge>path:hover{stroke-width:8}</style>
<path fill="none" stroke="black" d="M279.76,-219.6C283.85,-210.52 289.01,-199.07 293.62,-188.85"/>
<polygon fill="#dd188e" stroke="black" points="296.89,-190.1 297.81,-179.55 290.51,-187.23 296.89,-190.1"/>
</g>
<!-- utils&#45;&gt;optimizer -->
<g id="edge29" class="edge">
<title>utils&#45;&gt;optimizer</title><style>.edge>path:hover{stroke-width:8}</style>
<path fill="none" stroke="black" d="M298.24,-231.74C331.52,-224.32 386.46,-205.79 399.27,-163"/>
<path fill="none" stroke="black" d="M399.27,-161C403.55,-146.71 400.71,-130.39 396.5,-117.11"/>
<polygon fill="#dd188e" stroke="black" points="399.77,-115.86 393.11,-107.62 393.18,-118.21 399.77,-115.86"/>
</g>
<!-- utils&#45;&gt;sampler -->
<g id="edge30" class="edge">
<title>utils&#45;&gt;sampler</title><style>.edge>path:hover{stroke-width:8}</style>
<path fill="none" stroke="black" d="M211.27,-161C205.31,-144.73 213.97,-127.3 224.17,-113.9"/>
<polygon fill="#dd188e" stroke="black" points="226.92,-116.06 230.6,-106.13 221.53,-111.6 226.92,-116.06"/>
</g>
<!-- utils&#45;&gt;sky_analysis -->
<g id="edge31" class="edge">
<title>utils&#45;&gt;sky_analysis</title><style>.edge>path:hover{stroke-width:8}</style>
<path fill="none" stroke="black" d="M255.96,-222.78C241.12,-209.4 220.2,-187.39 211.27,-163"/>
<path fill="none" stroke="black" d="M211.27,-161C199.09,-127.76 146.4,-114.05 173.27,-91"/>
</g>
</g>
</svg>
